<svg xmlns="http://www.w3.org/2000/svg" width="481.965" height="223.041"><defs><linearGradient id="p" x1="20.686" y1="273.714" x2="20.739" y2="273.714" gradientUnits="objectBoundingBox"><stop offset="0" stop-color="#49708d"/><stop offset=".535" stop-color="#527d9e"/><stop offset="1" stop-color="#5885a8"/></linearGradient><linearGradient id="f" x1="27.535" y1="273.706" x2="27.589" y2="273.706" gradientUnits="objectBoundingBox"><stop offset="0" stop-color="#183143"/><stop offset="1" stop-color="#1e394c"/></linearGradient><linearGradient id="h" x1="23.847" y1="273.747" x2="23.896" y2="273.747" gradientUnits="objectBoundingBox"><stop offset="0" stop-color="#1e394c"/><stop offset="1" stop-color="#1e394c"/></linearGradient><linearGradient id="b" x1="30.977" y1="273.724" x2="31.032" y2="273.724" gradientUnits="objectBoundingBox"><stop offset="0" stop-color="#231f20"/><stop offset="1" stop-color="#062031"/></linearGradient><linearGradient id="j" x1="24.149" y1="273.721" x2="24.201" y2="273.721" gradientUnits="objectBoundingBox"><stop offset="0" stop-color="#1e394c"/><stop offset="1" stop-color="#2b495f"/></linearGradient><linearGradient id="l" x1="24.101" y1="273.698" x2="24.156" y2="273.698" gradientUnits="objectBoundingBox"><stop offset="0" stop-color="#2b495f"/><stop offset=".596" stop-color="#3a5d75"/><stop offset="1" stop-color="#416680"/></linearGradient><linearGradient id="n" x1="18.742" y1="273.771" x2="18.787" y2="273.771" gradientUnits="objectBoundingBox"><stop offset="0" stop-color="#416680"/><stop offset=".006" stop-color="#416680"/><stop offset="1" stop-color="#49708d"/></linearGradient><linearGradient id="d" x1="25.995" y1="273.769" x2="26.043" y2="273.769" gradientUnits="objectBoundingBox"><stop offset="0" stop-color="#231f20"/><stop offset=".108" stop-color="#1f252c"/><stop offset=".28" stop-color="#1b2c39"/><stop offset=".507" stop-color="#182f40"/><stop offset="1" stop-color="#183143"/></linearGradient><clipPath id="i"><path data-name="Path 40936" d="M-495.565 295.13h22.207a17.079 17.079 0 013.911.455 10.976 10.976 0 013.447 1.44 7.451 7.451 0 012.434 2.582 7.667 7.667 0 01.918 3.891 10.108 10.108 0 01-.918 4.739 6.256 6.256 0 01-2.529 2.624 10.3 10.3 0 01-3.744 1.139 37.948 37.948 0 01-4.57.259h-21.155zm-5.782-5.761v49.059h5.782V318.02h19.512l11.37 20.409h6.64l-11.435-20.409a17.306 17.306 0 004.4-1.01 12.176 12.176 0 004.078-2.518 12.759 12.759 0 002.994-4.388 17.079 17.079 0 001.147-6.663 14.169 14.169 0 00-.953-5.433 11.514 11.514 0 00-2.564-3.856 12.726 12.726 0 00-3.678-2.525 21.037 21.037 0 00-4.27-1.433 30.619 30.619 0 00-4.4-.661c-1.468-.1-2.82-.164-4.043-.164z" transform="translate(501.347 -289.369)" fill="none"/></clipPath><clipPath id="c"><path data-name="Path 40933" d="M-552.035 322.529l-18.331-33.158h-5.784v49.056h5.784v-37.611h.132l18.2 33.492 18.205-33.492h.125v37.611h5.786v-49.056h-5.782z" transform="translate(576.15 -289.371)" fill="none"/></clipPath><clipPath id="k"><path data-name="Path 40937" d="M-475.911 289.369v49.06h41.918v-5.756h-36.132v-16.809h18.268V310.1h-18.268v-14.969h34.689v-5.761z" transform="translate(475.911 -289.369)" fill="none"/></clipPath><clipPath id="g"><path data-name="Path 40935" d="M-486.091 289.369l-16.354 20.673-16.363-20.673h-7.492l20.832 26.362v22.7h5.784v-22.7l21.091-26.362z" transform="translate(526.301 -289.369)" fill="none"/></clipPath><clipPath id="m"><path data-name="Path 40938" d="M-428.845 296.372l8.94 19.493h-18.206zm-2.89-7l-23.456 49.059h6.441l7.75-16.812h23.65l8.017 16.809h6.441l-23.063-49.059z" transform="translate(455.191 -289.369)" fill="none"/></clipPath><clipPath id="a"><path data-name="Path 40932" d="M-594.864 315.862h18.264V310.1h-18.266v-14.974h34.694v-5.756h-40.478v49.056h41.922v-5.756h-36.138z" transform="translate(600.648 -289.371)" fill="none"/></clipPath><clipPath id="o"><path data-name="Path 40939" d="M-389.893 289.369v40.49h-.125l-31.938-40.49h-5.78v49.06h5.78v-39.96h.137l31.926 39.96h5.784v-49.06z" transform="translate(427.736 -289.369)" fill="none"/></clipPath><clipPath id="e"><path data-name="Path 40934" d="M-541.063 295.13h21.419a19.961 19.961 0 013.611.323 8.054 8.054 0 013.121 1.248 6.542 6.542 0 012.169 2.55 9.294 9.294 0 01.825 4.189 9.467 9.467 0 01-.758 4.053 6.634 6.634 0 01-2.041 2.515 7.69 7.69 0 01-3.086 1.311 19.775 19.775 0 01-3.84.361h-21.419zm-5.784-5.761v49.059h5.784v-21h21.419a24.883 24.883 0 006.073-.717 12.512 12.512 0 004.926-2.384 11.625 11.625 0 003.287-4.318 15.747 15.747 0 001.216-6.568 14.2 14.2 0 00-1.581-7.139 12.331 12.331 0 00-3.907-4.279 14.322 14.322 0 00-5.024-2.1 24.722 24.722 0 00-4.991-.557z" transform="translate(546.847 -289.369)" fill="none"/></clipPath></defs><g data-name="Group 48463"><g data-name="Group 44702"><g data-name="Group 44701" clip-path="url(#a)" transform="translate(0 173.984)"><path data-name="Rectangle 44052" transform="translate(0 .001)" fill="url(#b)" d="M0 0h41.923v49.055H0z"/></g></g><g data-name="Group 44704"><g data-name="Group 44703" clip-path="url(#c)" transform="translate(56.635 173.984)"><path data-name="Rectangle 44053" transform="translate(0 .001)" fill="url(#d)" d="M0 0h48.232v49.056H0z"/></g></g><g data-name="Group 44706"><g data-name="Group 44705" transform="translate(124.379 173.98)" clip-path="url(#e)"><path data-name="Rectangle 44054" transform="translate(.001 .002)" fill="url(#f)" d="M0 0h42.706v49.06H0z"/></g></g><g data-name="Group 44708"><g data-name="Group 44707" transform="translate(171.877 173.981)" clip-path="url(#g)"><path data-name="Rectangle 44055" fill="url(#h)" d="M0 0h47.707v49.06H0z"/></g></g><g data-name="Group 44710"><g data-name="Group 44709" transform="translate(229.566 173.98)" clip-path="url(#i)"><path data-name="Rectangle 44056" transform="translate(.001 .002)" fill="url(#j)" d="M0 0h44.484v49.06H0z"/></g></g><g data-name="Group 44712"><g data-name="Group 44711" clip-path="url(#k)" transform="translate(288.371 173.981)"><path data-name="Rectangle 44057" transform="translate(0 .001)" fill="url(#l)" d="M0 0h41.918v49.06H0z"/></g></g><g data-name="Group 44714"><g data-name="Group 44713" transform="translate(336.271 173.98)" clip-path="url(#m)"><path data-name="Rectangle 44058" transform="translate(.001)" fill="url(#n)" d="M0 0h52.3v49.061H0z"/></g></g><g data-name="Group 44716"><g data-name="Group 44715" clip-path="url(#o)" transform="translate(399.742 173.981)"><path data-name="Rectangle 44059" transform="translate(0 .001)" fill="url(#p)" d="M0 0h43.627v49.06H0z"/></g></g><path data-name="Rectangle 44061" fill="#6d6e70" d="M150.277 29.139h40.956v131.987h-40.956z"/><path data-name="Rectangle 44062" fill="#183143" d="M100.185 46.198h40.956v114.928h-40.956z"/><path data-name="Rectangle 44063" fill="#1e394c" d="M150.277 29.138h40.956V160.88h-40.956z"/><path data-name="Rectangle 44064" fill="#001829" d="M50.094 98.792h40.959v62.334H50.094z"/><path data-name="Rectangle 44065" fill="#231f20" d="M0 113.719h40.956v47.406H0z"/><path data-name="Rectangle 44066" fill="#808184" d="M200.367.001h40.959v161.125h-40.959z"/><path data-name="Rectangle 44067" fill="#929497" d="M253.1 28.895h40.959v131.984H253.1z"/><path data-name="Rectangle 44068" fill="#6e879d" d="M303.191 45.952h40.956V160.88h-40.956z"/><path data-name="Rectangle 44069" fill="#7091ac" d="M353.281 98.548h40.959v62.331h-40.959z"/><path data-name="Rectangle 44070" fill="#5783a6" d="M403.375 113.473h40.956v47.406h-40.956z"/><path data-name="Rectangle 44071" fill="#2b495f" d="M200.369 0h40.956v160.76h-40.956z"/><path data-name="Rectangle 44072" fill="#416680" d="M253.101 28.895h40.956v132.047h-40.956z"/><path data-name="Rectangle 44073" fill="#49708d" d="M303.191 45.952h40.956V160.76h-40.956z"/><path data-name="Rectangle 44074" fill="#517b9a" d="M353.285 98.548h40.956v62.212h-40.956z"/><path data-name="Rectangle 44075" fill="#5885a8" d="M403.377 113.473h40.956v47.346h-40.956z"/><path data-name="Path 44172" d="M471.964 194.553a10.035 10.035 0 0010-10.3 10.035 10.035 0 00-10-10.3 10.035 10.035 0 00-10 10.3 10.035 10.035 0 0010 10.3zm0-2.15a7.462 7.462 0 01-7.65-7.5v-1.3a7.462 7.462 0 017.65-7.5 7.462 7.462 0 017.65 7.5v1.3a7.462 7.462 0 01-7.65 7.5zm-1.5-6.45h1.45l1.95 3.6h2.8l-2.35-4a3.094 3.094 0 001.9-3.15c0-1.9-1.2-3.3-3.55-3.3h-4.75v10.45h2.55zm0-1.9v-2.95h1.9c.8 0 1.25.35 1.25 1.1v.75c0 .75-.45 1.1-1.25 1.1z" fill="#2b495f"/></g></svg>